<?xml version="1.0" encoding="UTF-8" standalone="no"?>
<svg
   xmlns:dc="http://purl.org/dc/elements/1.1/"
   xmlns:cc="http://creativecommons.org/ns#"
   xmlns:rdf="http://www.w3.org/1999/02/22-rdf-syntax-ns#"
   xmlns:svg="http://www.w3.org/2000/svg"
   xmlns="http://www.w3.org/2000/svg"
   xmlns:sodipodi="http://sodipodi.sourceforge.net/DTD/sodipodi-0.dtd"
   xmlns:inkscape="http://www.inkscape.org/namespaces/inkscape"
   width="496.51611"
   height="93.695496"
   viewBox="0 0 131.36989 24.79027"
   version="1.1"
   id="svg8"
   inkscape:version="1.0.1 (3bc2e813f5, 2020-09-07)"
   sodipodi:docname="scicloj-community-logo-banner.svg"
   inkscape:export-filename="/home/practicalli/projects/scicloj/graphic-design/scicloj-community-logo-banner.png"
   inkscape:export-xdpi="84.016846"
   inkscape:export-ydpi="84.016846">
  <defs
     id="defs2">
    <clipPath
       id="clip1">
      <path
         d="M 24.648438,0 H 167.14844 V 350.76172 H 24.648438 Z m 0,0"
         id="path2291" />
    </clipPath>
    <clipPath
       id="clip2">
      <path
         d="m 208.02734,0 h 142.5 v 350.78516 h -142.5 z m 0,0"
         id="path2294" />
    </clipPath>
    <clipPath
       id="clip3">
      <path
         d="M 81.257812,118 H 114 v 34 H 81.257812 Z m 0,0"
         id="path2297" />
    </clipPath>
    <clipPath
       id="clip4">
      <path
         d="m 264,118 h 33.25781 v 34 H 264 Z m 0,0"
         id="path2300" />
    </clipPath>
    <clipPath
       id="clip5">
      <path
         d="m 173,37.5 h 33 V 70 h -33 z m 0,0"
         id="path2303" />
    </clipPath>
    <clipPath
       id="clip1-3">
      <path
         d="M 24.648438,0 H 167.14844 V 350.76172 H 24.648438 Z m 0,0"
         id="path2291-6" />
    </clipPath>
    <clipPath
       id="clip2-7">
      <path
         d="m 208.02734,0 h 142.5 v 350.78516 h -142.5 z m 0,0"
         id="path2294-5" />
    </clipPath>
    <clipPath
       id="clip3-3">
      <path
         d="M 81.257812,118 H 114 v 34 H 81.257812 Z m 0,0"
         id="path2297-5" />
    </clipPath>
    <clipPath
       id="clip4-6">
      <path
         d="m 264,118 h 33.25781 v 34 H 264 Z m 0,0"
         id="path2300-2" />
    </clipPath>
    <clipPath
       id="clip5-9">
      <path
         d="m 173,37.5 h 33 V 70 h -33 z m 0,0"
         id="path2303-1" />
    </clipPath>
    <clipPath
       id="clip1-7">
      <path
         d="M 24.648438,0 H 167.14844 V 350.76172 H 24.648438 Z m 0,0"
         id="path2291-8" />
    </clipPath>
    <clipPath
       id="clip2-4">
      <path
         d="m 208.02734,0 h 142.5 v 350.78516 h -142.5 z m 0,0"
         id="path2294-50" />
    </clipPath>
    <clipPath
       id="clip3-36">
      <path
         d="M 81.257812,118 H 114 v 34 H 81.257812 Z m 0,0"
         id="path2297-1" />
    </clipPath>
    <clipPath
       id="clip4-0">
      <path
         d="m 264,118 h 33.25781 v 34 H 264 Z m 0,0"
         id="path2300-6" />
    </clipPath>
    <clipPath
       id="clip5-3">
      <path
         d="m 173,37.5 h 33 V 70 h -33 z m 0,0"
         id="path2303-2" />
    </clipPath>
  </defs>
  <sodipodi:namedview
     id="base"
     pagecolor="#ffffff"
     bordercolor="#666666"
     borderopacity="1.0"
     inkscape:pageopacity="0"
     inkscape:pageshadow="2"
     inkscape:zoom="1.7873512"
     inkscape:cx="219.55529"
     inkscape:cy="196.7583"
     inkscape:document-units="mm"
     inkscape:current-layer="layer1"
     inkscape:document-rotation="0"
     showgrid="false"
     fit-margin-top="12"
     fit-margin-left="12"
     fit-margin-right="12"
     fit-margin-bottom="12"
     units="px"
     inkscape:pagecheckerboard="true"
     inkscape:window-width="1712"
     inkscape:window-height="1409"
     inkscape:window-x="1924"
     inkscape:window-y="4"
     inkscape:window-maximized="1"
     lock-margins="false" />
  <metadata
     id="metadata5">
    <rdf:RDF>
      <cc:Work
         rdf:about="">
        <dc:format>image/svg+xml</dc:format>
        <dc:type
           rdf:resource="http://purl.org/dc/dcmitype/StillImage" />
        <dc:title />
      </cc:Work>
    </rdf:RDF>
  </metadata>
  <g
     inkscape:label="Layer 1"
     inkscape:groupmode="layer"
     id="layer1"
     transform="translate(-3.6437873,-13.594158)">
    <rect
       style="opacity:1;fill:#ffffff;fill-opacity:0.420142;stroke:#ffffff;stroke-width:0.721747;stroke-linecap:round;stroke-linejoin:round;stroke-miterlimit:4;stroke-dasharray:none;stroke-opacity:0.236328"
       id="rect923"
       width="124.29814"
       height="17.718519"
       x="7.1796608"
       y="17.130032"
       ry="2.8704474"
       rx="1.6704832" />
    <text
       xml:space="preserve"
       style="font-size:12.2347px;line-height:1.25;font-family:Ubuntu;-inkscape-font-specification:Ubuntu;letter-spacing:0px;word-spacing:0px;writing-mode:lr-tb;fill:#ffffff;stroke:#cccccc;stroke-width:0.191166;"
       x="27.463461"
       y="29.586292"
       id="text921"><tspan
         sodipodi:role="line"
         id="tspan919"
         x="27.463461"
         y="29.586292"
         style="fill:#ffffff;stroke:#cccccc;stroke-width:0.191166;">SciCloj community</tspan></text>
    <g
       id="g3567"
       transform="matrix(0.0452209,0,0,0.0452209,8.8507227,17.562294)">
      <ellipse
         style="fill:#ffffff;fill-opacity:1;stroke:#000000;stroke-width:2.70083;stroke-linecap:round;stroke-linejoin:round;stroke-opacity:0.236328"
         id="path5156-0"
         cx="187.64082"
         cy="186.35182"
         rx="183.29041"
         ry="188.45879" />
      <g
         id="g5154"
         transform="translate(0.07245926,12.140819)">
        <g
           clip-path="url(#clip1-7)"
           clip-rule="nonzero"
           id="g2316">
          <path
             style="fill:#547dd1;fill-opacity:1;fill-rule:nonzero;stroke:none"
             d="m 24.507812,173.01172 c 0,97.98047 79.734378,177.71094 177.714848,177.71094 v -32.78125 c -79.91407,0 -144.933598,-65.01563 -144.933598,-144.92969 0,-79.91797 65.019528,-144.933595 144.933598,-144.933595 v -32.78125 c -98.01563,0 -177.714848,79.730469 -177.714848,177.714845 z m 0,0"
             id="path2314" />
        </g>
        <g
           clip-path="url(#clip2-4)"
           clip-rule="nonzero"
           id="g2320">
          <path
             style="fill:#5eab30;fill-opacity:1;fill-rule:nonzero;stroke:none"
             d="m 350.48828,173.03516 c 0,-97.984379 -79.73047,-177.714848 -177.71094,-177.714848 v 32.78125 c 79.91407,0 144.92969,65.015626 144.92969,144.933598 0,79.91406 -65.01562,144.92968 -144.92969,144.92968 v 32.78125 c 98.01563,0 177.71094,-79.73047 177.71094,-177.71093 z m 0,0"
             id="path2318" />
        </g>
        <path
           style="fill:#8aaef5;fill-opacity:1;fill-rule:nonzero;stroke:none"
           d="m 259.93359,206.03516 -37.61328,42.35546 -23.40625,-36.21093 26.37891,-52.78516 48.42969,-8.73828 z m -68.35547,14.67578 20.13672,31.1875 h -43.91797 z m -24.51953,-52.55078 15.76953,-47.50782 56.04297,-25.824215 -45.39453,104.093745 z m -25.30078,-82.367191 40.3125,-14.714844 -7.29687,36.695315 z m -24.85547,113.531251 -11.53515,-46.42969 46.27734,19.33984 z m 163.75391,-60.85156 c -0.25391,0.0195 -0.50391,0.0195 -0.75781,0.0625 l -49.80078,9.01562 23.59375,-61.167968 c 0.88671,-2.277343 0.0859,-4.960937 -1.91797,-6.375 -1.4961,-1.035156 -3.71094,-1.308593 -5.39844,-0.550781 l -60.51172,27.914059 8.66797,-43.601559 c 0.0195,-0.105469 -0.0234,-0.1875 0,-0.292969 0.29297,-2.027343 -0.61328,-4.074218 -2.33984,-5.214843 -3.5,-2.324219 -9.10938,0.929687 -12.52344,2.171875 -6.98047,2.554687 -13.98047,5.109375 -20.95703,7.664062 -7.19141,2.597656 -14.35938,5.238282 -21.52735,7.855469 -3.05859,1.097656 -6.09375,2.21875 -9.15234,3.335937 -1.70703,0.613282 -3.07812,2.386719 -3.39453,4.140626 -0.37891,2.089843 0.57031,4.222656 2.25781,5.445312 l 45.14063,30.06641 -14.63282,43.98046 -56.21093,-23.47656 c -0.23047,-0.10547 -0.48438,-0.0859 -0.73438,-0.14844 -1.203124,-0.78125 -2.699218,-1.12109 -4.23828,-0.73828 -2.890625,0.71485 -4.640625,3.65235 -3.921875,6.54297 l 15.558595,62.58203 c -0.52734,1.625 -0.35938,3.48438 0.78125,4.94141 1.07422,1.37109 2.65625,2.08984 4.25781,2.08984 1.17969,0 2.33985,-0.3789 3.33203,-1.14062 l 45.26563,-35.30078 24.30859,28.29297 c -0.69531,1.32812 -0.80078,2.84765 -0.29297,4.28515 l -33.3125,43.70703 c -1.8125,2.36328 -1.35156,5.76172 1.01172,7.57813 0.96875,0.73828 2.12891,1.09765 3.26563,1.09765 0.82421,0 1.60546,-0.16796 2.34375,-0.52734 0,0 62.78515,0 62.89062,-0.0195 1.51953,-0.19141 2.80469,-0.69922 3.96484,-1.81641 l 43.17969,-48.60547 c 0.0625,-0.0625 0.082,-0.16796 0.14453,-0.2539 0.31641,-0.37891 0.57032,-0.82422 0.76172,-1.3086 0.0625,-0.14843 0.14844,-0.27343 0.1875,-0.4414 0.043,-0.0859 0.10547,-0.19141 0.14844,-0.29688 l 15.8125,-63.61718 c 0.58984,-1.05469 0.88672,-2.25782 0.65625,-3.50391 -0.50781,-2.82813 -3.05859,-4.66797 -5.90625,-4.37109"
           id="path2322" />
        <path
           style="fill:#737373;fill-opacity:1;fill-rule:nonzero;stroke:none"
           d="m 210.84766,351 h -43.17579 c -5.96875,0 -10.79687,-4.83594 -10.79687,-10.80859 v -16.21875 h 64.76953 v 16.21875 c 0,5.97265 -4.82812,10.80859 -10.79687,10.80859"
           id="path2324" />
        <path
           style="fill:#bfc7cf;fill-opacity:1;fill-rule:nonzero;stroke:none"
           d="m 227.04297,307.75781 c 5.96484,0 10.79297,-4.83594 10.79297,-10.80859 0,-5.97656 -4.82813,-10.8125 -10.79297,-10.8125 h -75.56641 c -5.96484,0 -10.79297,4.83594 -10.79297,10.8125 0,5.97265 4.82813,10.80859 10.79297,10.80859 -5.96484,0 -10.79297,4.83594 -10.79297,10.8125 0,5.97266 4.82813,10.8086 10.79297,10.8086 h 75.56641 c 5.96484,0 10.79297,-4.83594 10.79297,-10.8086 0,-5.97656 -4.82813,-10.8125 -10.79297,-10.8125"
           id="path2326" />
        <path
           style="fill:#a3b0b5;fill-opacity:1;fill-rule:nonzero;stroke:none"
           d="m 227.04297,329.37891 h -75.56641 c -5.96484,0 -10.79297,-4.83594 -10.79297,-10.8086 0,-5.97656 4.82813,-10.8125 10.79297,-10.8125 h 75.56641 c 5.96484,0 10.79297,4.83594 10.79297,10.8125 0,5.97266 -4.82813,10.8086 -10.79297,10.8086"
           id="path2328" />
        <path
           style="fill:#8cd435;fill-opacity:1;fill-rule:nonzero;stroke:none"
           d="m 173.06641,257.30078 c 0,8.95313 -7.25,16.21484 -16.19141,16.21484 -8.9375,0 -16.19141,-7.26171 -16.19141,-16.21484 0,-8.95312 7.25391,-16.21484 16.19141,-16.21484 8.94141,0 16.19141,7.26172 16.19141,16.21484"
           id="path2330" />
        <path
           style="fill:#8cd435;fill-opacity:1;fill-rule:nonzero;stroke:none"
           d="m 205.45312,211.35937 c 0,7.47266 -6.03125,13.51172 -13.49609,13.51172 -7.46094,0 -13.49219,-6.03906 -13.49219,-13.51172 0,-7.47656 6.03125,-13.51562 13.49219,-13.51562 7.46484,0 13.49609,6.03906 13.49609,13.51562"
           id="path2332" />
        <path
           style="fill:#8cd435;fill-opacity:1;fill-rule:nonzero;stroke:none"
           d="m 173.06641,173.52344 c 0,7.47265 -6.02735,13.51172 -13.49219,13.51172 -7.46485,0 -13.49219,-6.03907 -13.49219,-13.51172 0,-7.47657 6.02734,-13.51563 13.49219,-13.51563 7.46484,0 13.49219,6.03906 13.49219,13.51563"
           id="path2334" />
        <path
           style="fill:#8cd435;fill-opacity:1;fill-rule:nonzero;stroke:none"
           d="m 129.88672,208.65625 c 0,8.95312 -7.25,16.21484 -16.19141,16.21484 -8.9375,0 -16.191404,-7.26172 -16.191404,-16.21484 0,-8.95313 7.253904,-16.21484 16.191404,-16.21484 8.94141,0 16.19141,7.26171 16.19141,16.21484"
           id="path2336" />
        <path
           style="fill:#8cd435;fill-opacity:1;fill-rule:nonzero;stroke:none"
           d="m 237.83594,154.60156 c 0,8.95313 -7.25391,16.21875 -16.19141,16.21875 -8.94141,0 -16.19141,-7.26562 -16.19141,-16.21875 0,-8.94922 7.25,-16.21484 16.19141,-16.21484 8.9375,0 16.19141,7.26562 16.19141,16.21484"
           id="path2338" />
        <path
           style="fill:#8cd435;fill-opacity:1;fill-rule:nonzero;stroke:none"
           d="m 194.65625,116.76563 c 0,8.95312 -7.25391,16.21875 -16.19141,16.21875 -8.9414,0 -16.1914,-7.26563 -16.1914,-16.21875 0,-8.94922 7.25,-16.21485 16.1914,-16.21485 8.9375,0 16.19141,7.26563 16.19141,16.21485"
           id="path2340" />
        <g
           clip-path="url(#clip3-36)"
           clip-rule="nonzero"
           id="g2344"
           transform="translate(0,9)">
          <path
             style="fill:#8cd435;fill-opacity:1;fill-rule:nonzero;stroke:none"
             d="m 113.69531,134.79297 c 0,8.95312 -7.2539,16.21484 -16.191404,16.21484 -8.941406,0 -16.191406,-7.26172 -16.191406,-16.21484 0,-8.95313 7.25,-16.21484 16.191406,-16.21484 8.937504,0 16.191404,7.26171 16.191404,16.21484"
             id="path2342" />
        </g>
        <path
           style="fill:#8cd435;fill-opacity:1;fill-rule:nonzero;stroke:none"
           d="m 146.08203,84.335938 c 0,8.953124 -7.25391,16.214842 -16.19531,16.214842 -8.9375,0 -16.19141,-7.261718 -16.19141,-16.214842 0,-8.953126 7.25391,-16.214844 16.19141,-16.214844 8.9414,0 16.19531,7.261718 16.19531,16.214844"
           id="path2346" />
        <path
           style="fill:#8cd435;fill-opacity:1;fill-rule:nonzero;stroke:none"
           d="m 205.45312,257.30078 c 0,8.95313 7.25,16.21484 16.19141,16.21484 8.9375,0 16.19141,-7.26171 16.19141,-16.21484 0,-8.95312 -7.25391,-16.21484 -16.19141,-16.21484 -8.94141,0 -16.19141,7.26172 -16.19141,16.21484"
           id="path2348" />
        <path
           style="fill:#8cd435;fill-opacity:1;fill-rule:nonzero;stroke:none"
           d="m 248.63281,208.65625 c 0,8.95312 7.25,16.21484 16.19141,16.21484 8.9375,0 16.1914,-7.26172 16.1914,-16.21484 0,-8.95313 -7.2539,-16.21484 -16.1914,-16.21484 -8.94141,0 -16.19141,7.26171 -16.19141,16.21484"
           id="path2350" />
        <g
           clip-path="url(#clip4-0)"
           clip-rule="nonzero"
           id="g2354"
           transform="translate(0,9)">
          <path
             style="fill:#8cd435;fill-opacity:1;fill-rule:nonzero;stroke:none"
             d="m 264.82422,134.79297 c 0,8.95312 7.2539,16.21484 16.1914,16.21484 8.94141,0 16.19141,-7.26172 16.19141,-16.21484 0,-8.95313 -7.25,-16.21484 -16.19141,-16.21484 -8.9375,0 -16.1914,7.26171 -16.1914,16.21484"
             id="path2352" />
        </g>
        <path
           style="fill:#8cd435;fill-opacity:1;fill-rule:nonzero;stroke:none"
           d="m 232.4375,84.335938 c 0,8.953124 7.25391,16.214842 16.19531,16.214842 8.9375,0 16.19141,-7.261718 16.19141,-16.214842 0,-8.953126 -7.25391,-16.214844 -16.19141,-16.214844 -8.9414,0 -16.19531,7.261718 -16.19531,16.214844"
           id="path2356" />
        <g
           clip-path="url(#clip5-3)"
           clip-rule="nonzero"
           id="g2360"
           transform="translate(0,9)">
          <path
             style="fill:#8cd435;fill-opacity:1;fill-rule:nonzero;stroke:none"
             d="m 205.45312,53.714844 c 0,8.953125 -7.2539,16.214844 -16.19531,16.214844 -8.9375,0 -16.1914,-7.261719 -16.1914,-16.214844 0,-8.953125 7.2539,-16.214844 16.1914,-16.214844 8.94141,0 16.19531,7.261719 16.19531,16.214844"
             id="path2358" />
        </g>
      </g>
    </g>
  </g>
</svg>
