<?xml version="1.0" encoding="UTF-8" standalone="no"?>
<svg
   xmlns:dc="http://purl.org/dc/elements/1.1/"
   xmlns:cc="http://creativecommons.org/ns#"
   xmlns:rdf="http://www.w3.org/1999/02/22-rdf-syntax-ns#"
   xmlns:svg="http://www.w3.org/2000/svg"
   xmlns="http://www.w3.org/2000/svg"
   xmlns:sodipodi="http://sodipodi.sourceforge.net/DTD/sodipodi-0.dtd"
   xmlns:inkscape="http://www.inkscape.org/namespaces/inkscape"
   width="496.51611"
   height="93.695496"
   viewBox="0 0 131.36989 24.79027"
   version="1.1"
   id="svg8"
   inkscape:version="1.0.1 (3bc2e813f5, 2020-09-07)"
   sodipodi:docname="scicloj-community-logo-banner.svg"
   inkscape:export-filename="/home/practicalli/projects/scicloj/graphic-design/scicloj-community-logo-banner.png"
   inkscape:export-xdpi="84.016846"
   inkscape:export-ydpi="84.016846">
  <defs
     id="defs2">
    <clipPath
       id="clip1">
      <path
         d="M 24.648438,0 H 167.14844 V 350.76172 H 24.648438 Z m 0,0"
         id="path2291" />
    </clipPath>
    <clipPath
       id="clip2">
      <path
         d="m 208.02734,0 h 142.5 v 350.78516 h -142.5 z m 0,0"
         id="path2294" />
    </clipPath>
    <clipPath
       id="clip3">
      <path
         d="M 81.257812,118 H 114 v 34 H 81.257812 Z m 0,0"
         id="path2297" />
    </clipPath>
    <clipPath
       id="clip4">
      <path
         d="m 264,118 h 33.25781 v 34 H 264 Z m 0,0"
         id="path2300" />
    </clipPath>
    <clipPath
       id="clip5">
      <path
         d="m 173,37.5 h 33 V 70 h -33 z m 0,0"
         id="path2303" />
    </clipPath>
  </defs>
  <sodipodi:namedview
     id="base"
     pagecolor="#ffffff"
     bordercolor="#666666"
     borderopacity="1.0"
     inkscape:pageopacity="0"
     inkscape:pageshadow="2"
     inkscape:zoom="0.83487315"
     inkscape:cx="181.91346"
     inkscape:cy="-3.5698561"
     inkscape:document-units="mm"
     inkscape:current-layer="layer1"
     inkscape:document-rotation="0"
     showgrid="false"
     fit-margin-top="12"
     fit-margin-left="12"
     fit-margin-right="12"
     fit-margin-bottom="12"
     units="px"
     inkscape:pagecheckerboard="true"
     inkscape:window-width="1712"
     inkscape:window-height="1409"
     inkscape:window-x="3642"
     inkscape:window-y="4"
     inkscape:window-maximized="1"
     lock-margins="false" />
  <metadata
     id="metadata5">
    <rdf:RDF>
      <cc:Work
         rdf:about="">
        <dc:format>image/svg+xml</dc:format>
        <dc:type
           rdf:resource="http://purl.org/dc/dcmitype/StillImage" />
        <dc:title></dc:title>
      </cc:Work>
    </rdf:RDF>
  </metadata>
  <g
     inkscape:label="Layer 1"
     inkscape:groupmode="layer"
     id="layer1"
     transform="translate(-3.6437873,-13.594158)">
    <rect
       style="opacity:1;fill:#ffffff;fill-opacity:0.420142;stroke:#ffffff;stroke-width:0.721747;stroke-linecap:round;stroke-linejoin:round;stroke-miterlimit:4;stroke-dasharray:none;stroke-opacity:0.236328"
       id="rect923"
       width="124.29814"
       height="17.718519"
       x="7.1796608"
       y="17.130032"
       ry="2.8704474"
       rx="1.6704832" />
    <text
       xml:space="preserve"
       style="font-size:12.2347px;line-height:1.25;font-family:Ubuntu;-inkscape-font-specification:Ubuntu;letter-spacing:0px;word-spacing:0px;writing-mode:lr-tb;fill:#ffffff;stroke:#f2f2f2;stroke-width:0.191166"
       x="27.463461"
       y="29.586292"
       id="text921"><tspan
         sodipodi:role="line"
         id="tspan919"
         x="27.463461"
         y="29.586292"
         style="fill:#ffffff;stroke:#f2f2f2;stroke-width:0.191166">SciCloj community</tspan></text>
    <g
       id="g5083"
       transform="matrix(0.25019972,0,0,0.25019972,10.27564,10.582959)">
      <g
         clip-path="url(#clip5)"
         clip-rule="nonzero"
         id="g2360"
         transform="matrix(0.17751893,0,0,0.17751893,-4.536287,32.315604)">
        <path
           style="fill:#8cd435;fill-opacity:1;fill-rule:nonzero;stroke:none"
           d="m 205.45312,53.714844 c 0,8.953125 -7.2539,16.214844 -16.19531,16.214844 -8.9375,0 -16.1914,-7.261719 -16.1914,-16.214844 0,-8.953125 7.2539,-16.214844 16.1914,-16.214844 8.94141,0 16.19531,7.261719 16.19531,16.214844"
           id="path2358" />
      </g>
      <g
         clip-path="url(#clip1)"
         clip-rule="nonzero"
         id="g2316"
         transform="matrix(0.17751893,0,0,0.17751893,-4.536287,30.717934)">
        <path
           style="fill:#547dd1;fill-opacity:1;fill-rule:nonzero;stroke:none"
           d="m 24.507812,173.01172 c 0,97.98047 79.734378,177.71094 177.714848,177.71094 v -32.78125 c -79.91407,0 -144.933598,-65.01563 -144.933598,-144.92969 0,-79.91797 65.019528,-144.933595 144.933598,-144.933595 v -32.78125 c -98.01563,0 -177.714848,79.730469 -177.714848,177.714845 z m 0,0"
           id="path2314" />
      </g>
      <g
         clip-path="url(#clip2)"
         clip-rule="nonzero"
         id="g2320"
         transform="matrix(0.17751893,0,0,0.17751893,-4.536287,30.717934)">
        <path
           style="fill:#5eab30;fill-opacity:1;fill-rule:nonzero;stroke:none"
           d="m 350.48828,173.03516 c 0,-97.984379 -79.73047,-177.714848 -177.71094,-177.714848 v 32.78125 c 79.91407,0 144.92969,65.015626 144.92969,144.933598 0,79.91406 -65.01562,144.92968 -144.92969,144.92968 v 32.78125 c 98.01563,0 177.71094,-79.73047 177.71094,-177.71093 z m 0,0"
           id="path2318" />
      </g>
      <path
         style="fill:#8aaef5;fill-opacity:1;fill-rule:nonzero;stroke:none;stroke-width:0.177519"
         d="m 41.606846,67.293075 -6.677069,7.518896 -4.155053,-6.428125 4.682756,-9.370366 8.597187,-1.55121 z m -12.13439,2.605229 3.574649,5.536372 h -7.796271 z m -4.352681,-9.328758 2.79939,-8.433538 9.948688,-4.584287 -8.058388,18.478611 z M 20.628408,45.94781 27.78464,43.335647 26.489307,49.84976 Z m -4.412317,20.153946 -2.047707,-8.242149 8.215104,3.433188 z M 45.28551,55.299452 c -0.04507,0.0035 -0.08945,0.0035 -0.134525,0.01109 l -8.840582,1.600444 4.188338,-10.858473 c 0.157407,-0.404271 0.01525,-0.88066 -0.340476,-1.131683 -0.265586,-0.18376 -0.658762,-0.2323 -0.958326,-0.09777 l -10.741975,4.955274 1.538728,-7.740102 c 0.0035,-0.01872 -0.0042,-0.03328 0,-0.05201 0.05201,-0.359891 -0.108868,-0.72325 -0.415366,-0.925733 -0.621316,-0.412593 -1.617087,0.165037 -2.223147,0.385549 -1.239166,0.453505 -2.481798,0.907011 -3.72027,1.360516 -1.276611,0.461133 -2.549062,0.929894 -3.821512,1.394494 -0.542958,0.194855 -1.081756,0.393871 -1.624713,0.592192 -0.303031,0.10887 -0.546425,0.423688 -0.602594,0.73504 -0.06726,0.370987 0.101241,0.749601 0.400804,0.966646 l 8.013317,5.337357 -2.597603,7.807364 -9.978504,-4.167534 c -0.04091,-0.01872 -0.08599,-0.01525 -0.130367,-0.02635 -0.213577,-0.138686 -0.479162,-0.199014 -0.752374,-0.131058 -0.513141,0.126899 -0.823799,0.648361 -0.696208,1.161501 l 2.761946,11.109495 c -0.09361,0.288468 -0.0638,0.618543 0.138686,0.877193 0.190695,0.243395 0.471535,0.370987 0.755842,0.370987 0.209417,0 0.415368,-0.06726 0.591499,-0.202482 l 8.035506,-6.266557 4.315235,5.022538 c -0.123431,0.235767 -0.142154,0.505512 -0.05201,0.760695 l -5.913599,7.758826 c -0.321753,0.419526 -0.239928,1.022814 0.179599,1.345261 0.171971,0.131059 0.377922,0.194854 0.579711,0.194854 0.146313,0 0.285,-0.02982 0.41606,-0.09361 0,0 11.145553,0 11.164276,-0.0035 0.269745,-0.03398 0.497885,-0.124125 0.703834,-0.322447 l 7.665212,-8.628391 c 0.01109,-0.0111 0.01456,-0.02982 0.02566,-0.04507 0.05617,-0.06726 0.101243,-0.146315 0.13522,-0.232301 0.01109,-0.02635 0.02635,-0.04854 0.03328,-0.07836 0.0076,-0.01525 0.01872,-0.03398 0.02635,-0.0527 l 2.807019,-11.293254 c 0.104707,-0.187227 0.157409,-0.400805 0.116496,-0.62201 -0.09015,-0.502047 -0.542957,-0.828653 -1.048471,-0.775951"
         id="path2322" />
      <path
         style="fill:#737373;fill-opacity:1;fill-rule:nonzero;stroke:none;stroke-width:0.177519"
         d="m 32.893164,93.027078 h -7.66452 c -1.059566,0 -1.916649,-0.85847 -1.916649,-1.918729 v -2.879135 h 11.497818 v 2.879135 c 0,1.060259 -0.857083,1.918729 -1.916649,1.918729"
         id="path2324" />
      <path
         style="fill:#bfc7cf;fill-opacity:1;fill-rule:nonzero;stroke:none;stroke-width:0.177519"
         d="m 35.768138,85.350771 c 1.058872,0 1.915957,-0.858471 1.915957,-1.918729 0,-1.060953 -0.857085,-1.919424 -1.915957,-1.919424 H 22.35367 c -1.058872,0 -1.915957,0.858471 -1.915957,1.919424 0,1.060258 0.857085,1.918729 1.915957,1.918729 -1.058872,0 -1.915957,0.858471 -1.915957,1.919424 0,1.06026 0.857085,1.918731 1.915957,1.918731 h 13.414468 c 1.058872,0 1.915957,-0.858471 1.915957,-1.918731 0,-1.060953 -0.857085,-1.919424 -1.915957,-1.919424"
         id="path2326" />
      <path
         style="fill:#a3b0b5;fill-opacity:1;fill-rule:nonzero;stroke:none;stroke-width:0.177519"
         d="M 35.768138,89.188926 H 22.35367 c -1.058872,0 -1.915957,-0.858471 -1.915957,-1.918731 0,-1.060953 0.857085,-1.919424 1.915957,-1.919424 h 13.414468 c 1.058872,0 1.915957,0.858471 1.915957,1.919424 0,1.06026 -0.857085,1.918731 -1.915957,1.918731"
         id="path2328" />
      <path
         style="fill:#8cd435;fill-opacity:1;fill-rule:nonzero;stroke:none;stroke-width:0.177519"
         d="m 26.186277,76.393693 c 0,1.58935 -1.287012,2.878441 -2.874282,2.878441 -1.586575,0 -2.874282,-1.289091 -2.874282,-2.878441 0,-1.589348 1.287707,-2.878441 2.874282,-2.878441 1.58727,0 2.874282,1.289093 2.874282,2.878441"
         id="path2330" />
      <path
         style="fill:#8cd435;fill-opacity:1;fill-rule:nonzero;stroke:none;stroke-width:0.177519"
         d="m 31.935531,68.238223 c 0,1.326539 -1.070661,2.398586 -2.395811,2.398586 -1.324459,0 -2.39512,-1.072047 -2.39512,-2.398586 0,-1.327231 1.070661,-2.399278 2.39512,-2.399278 1.32515,0 2.395811,1.072047 2.395811,2.399278"
         id="path2332" />
      <path
         style="fill:#8cd435;fill-opacity:1;fill-rule:nonzero;stroke:none;stroke-width:0.177519"
         d="m 26.186277,61.521629 c 0,1.326537 -1.069969,2.398586 -2.395119,2.398586 -1.325152,0 -2.395119,-1.072049 -2.395119,-2.398586 0,-1.327232 1.069967,-2.39928 2.395119,-2.39928 1.32515,0 2.395119,1.072048 2.395119,2.39928"
         id="path2334" />
      <path
         style="fill:#8cd435;fill-opacity:1;fill-rule:nonzero;stroke:none;stroke-width:0.177519"
         d="m 18.521065,67.758368 c 0,1.589349 -1.287013,2.878441 -2.874282,2.878441 -1.586576,0 -2.874281,-1.289092 -2.874281,-2.878441 0,-1.58935 1.287705,-2.878441 2.874281,-2.878441 1.587269,0 2.874282,1.289091 2.874282,2.878441"
         id="path2336" />
      <path
         style="fill:#8cd435;fill-opacity:1;fill-rule:nonzero;stroke:none;stroke-width:0.177519"
         d="m 37.684095,58.162638 c 0,1.58935 -1.287707,2.879135 -2.874282,2.879135 -1.58727,0 -2.874282,-1.289785 -2.874282,-2.879135 0,-1.588656 1.287012,-2.878442 2.874282,-2.878442 1.586575,0 2.874282,1.289786 2.874282,2.878442"
         id="path2338" />
      <path
         style="fill:#8cd435;fill-opacity:1;fill-rule:nonzero;stroke:none;stroke-width:0.177519"
         d="m 30.018882,51.446044 c 0,1.589348 -1.287706,2.879135 -2.874282,2.879135 -1.587267,0 -2.87428,-1.289787 -2.87428,-2.879135 0,-1.588656 1.287013,-2.878443 2.87428,-2.878443 1.586576,0 2.874282,1.289787 2.874282,2.878443"
         id="path2340" />
      <g
         clip-path="url(#clip3)"
         clip-rule="nonzero"
         id="g2344"
         transform="matrix(0.17751893,0,0,0.17751893,-4.536287,32.315604)">
        <path
           style="fill:#8cd435;fill-opacity:1;fill-rule:nonzero;stroke:none"
           d="m 113.69531,134.79297 c 0,8.95312 -7.2539,16.21484 -16.191404,16.21484 -8.941406,0 -16.191406,-7.26172 -16.191406,-16.21484 0,-8.95313 7.25,-16.21484 16.191406,-16.21484 8.937504,0 16.191404,7.26171 16.191404,16.21484"
           id="path2342" />
      </g>
      <path
         style="fill:#8cd435;fill-opacity:1;fill-rule:nonzero;stroke:none;stroke-width:0.177519"
         d="m 21.396039,45.689159 c 0,1.589349 -1.287707,2.878442 -2.874974,2.878442 -1.586576,0 -2.874282,-1.289093 -2.874282,-2.878442 0,-1.589349 1.287706,-2.878441 2.874282,-2.878441 1.587267,0 2.874974,1.289092 2.874974,2.878441"
         id="path2346" />
      <path
         style="fill:#8cd435;fill-opacity:1;fill-rule:nonzero;stroke:none;stroke-width:0.177519"
         d="m 31.935531,76.393693 c 0,1.58935 1.287012,2.878441 2.874282,2.878441 1.586575,0 2.874282,-1.289091 2.874282,-2.878441 0,-1.589348 -1.287707,-2.878441 -2.874282,-2.878441 -1.58727,0 -2.874282,1.289093 -2.874282,2.878441"
         id="path2348" />
      <path
         style="fill:#8cd435;fill-opacity:1;fill-rule:nonzero;stroke:none;stroke-width:0.177519"
         d="m 39.600743,67.758368 c 0,1.589349 1.287013,2.878441 2.874282,2.878441 1.586576,0 2.87428,-1.289092 2.87428,-2.878441 0,-1.58935 -1.287704,-2.878441 -2.87428,-2.878441 -1.587269,0 -2.874282,1.289091 -2.874282,2.878441"
         id="path2350" />
      <g
         clip-path="url(#clip4)"
         clip-rule="nonzero"
         id="g2354"
         transform="matrix(0.17751893,0,0,0.17751893,-4.536287,32.315604)">
        <path
           style="fill:#8cd435;fill-opacity:1;fill-rule:nonzero;stroke:none"
           d="m 264.82422,134.79297 c 0,8.95312 7.2539,16.21484 16.1914,16.21484 8.94141,0 16.19141,-7.26172 16.19141,-16.21484 0,-8.95313 -7.25,-16.21484 -16.19141,-16.21484 -8.9375,0 -16.1914,7.26171 -16.1914,16.21484"
           id="path2352" />
      </g>
      <path
         style="fill:#8cd435;fill-opacity:1;fill-rule:nonzero;stroke:none;stroke-width:0.177519"
         d="m 36.725769,45.689159 c 0,1.589349 1.287707,2.878442 2.874974,2.878442 1.586576,0 2.874282,-1.289093 2.874282,-2.878442 0,-1.589349 -1.287706,-2.878441 -2.874282,-2.878441 -1.587267,0 -2.874974,1.289092 -2.874974,2.878441"
         id="path2356" />
    </g>
  </g>
</svg>
