<svg fill="none" height="256" stroke-linecap="round" stroke-linejoin="round" stroke-width="32" viewBox="-128 -128 256 256" width="256" xmlns="http://www.w3.org/2000/svg"><circle cx="0" cy="0" fill="#FFFFFF" r="128" stroke="none"></circle><g stroke-linecap="butt" transform="rotate(-45) scale(1.1)"><path d="M -12,-112 C -146,-112 -146,112 -12,112" stroke="#62B132"></path><path d="M 12,112 C 146,112 146,-112 12,-112" stroke="#5881D8"></path></g><g id="tilde" stroke-linecap="square" stroke-width="20" stroke="#FFCD52"><path d="M -55 55 L -55 -55 -18 -55 -18 55 18 55 18 -55 55 -55 55 55" stroke-width="30" stroke="#A86F40"></path><path d="M -55 55 L -55 -55 -18 -55 -18 55 18 55 18 -55 55 -55 55 55"></path><path d="M -67 65 L -43 65" stroke-linecap="round" stroke-width="10" stroke="#A86F40"></path><path d="M 67 65 L 43 65" stroke-linecap="round" stroke-width="10" stroke="#A86F40"></path><path d="M -30 -20 L -6 -20" stroke-linecap="round" stroke-width="10" stroke="#A86F40"></path><path d="M 30 20 L 6 20" stroke-linecap="round" stroke-width="10" stroke="#A86F40"></path></g></svg>