<svg fill="none" height="256" stroke-linecap="round" stroke-linejoin="round" stroke-width="31" viewBox="-128 -128 256 256" width="256" xmlns="http://www.w3.org/2000/svg"><circle cx="0" cy="0" fill="#FFFFFF" r="128" stroke="none"></circle><g stroke-linecap="butt"><path d="M -128,0 Q -112,0 -112,20 -100,100 -20,112 0,112 0,128" stroke="#62B132"></path><path d="M 128,0 Q 112,0 112,-20 100,-100 20,-112  0,-112 0,-128" stroke="#5881D8"></path></g><g fill="#FFCD52" id="north star"><path d="M 0 -90 L 10 0 0 90 -10 0 Z"></path><path d="M -90 0 L 0 10 90 0 0 -10 Z"></path><path d="M -45 -45 L -10 0 45 45 10 0 Z"></path><path d="M -45 45 L -10 0 45 -45 10 0 Z"></path></g></svg>